<svg xmlns="http://www.w3.org/2000/svg" viewBox="0 0 36 24">
  <rect width="36" height="24" rx="3" fill="#de2910"/>
  <g fill="#ffde00">
    <path d="m6 3 1 3h3L7.5 7.7l1 3L6 8.9l-2.5 1.8 1-3L2 6h3z"/>
    <path d="m13.2 3.2.6 1.2 1.3.2-.9.9.2 1.3-1.2-.6-1.1.6.2-1.3-.9-.9 1.3-.2z"/>
    <path d="m16 6.6.6 1.2 1.3.2-1 .9.3 1.3-1.2-.6-1.2.6.3-1.3-1-.9 1.3-.2z"/>
    <path d="m16 11.2.6 1.2 1.3.2-1 .9.3 1.3-1.2-.6-1.2.6.3-1.3-1-.9 1.3-.2z"/>
    <path d="m13.2 14.8.6 1.2 1.3.2-.9.9.2 1.3-1.2-.6-1.1.6.2-1.3-.9-.9 1.3-.2z"/>
  </g>
</svg>
