<svg xmlns="http://www.w3.org/2000/svg" viewBox="0 0 36 24">
  <rect width="36" height="24" rx="3" fill="#fff"/>
  <g fill="#b22234">
    <rect width="36" height="1.85" y="0"/>
    <rect width="36" height="1.85" y="3.69"/>
    <rect width="36" height="1.85" y="7.38"/>
    <rect width="36" height="1.85" y="11.07"/>
    <rect width="36" height="1.85" y="14.76"/>
    <rect width="36" height="1.85" y="18.45"/>
    <rect width="36" height="1.85" y="22.15"/>
  </g>
  <rect width="15.5" height="12.92" rx="2" fill="#3c3b6e"/>
  <g fill="#fff">
    <circle cx="2.4" cy="2" r=".45"/>
    <circle cx="5" cy="2" r=".45"/>
    <circle cx="7.6" cy="2" r=".45"/>
    <circle cx="10.2" cy="2" r=".45"/>
    <circle cx="12.8" cy="2" r=".45"/>
    <circle cx="3.7" cy="4.1" r=".45"/>
    <circle cx="6.3" cy="4.1" r=".45"/>
    <circle cx="8.9" cy="4.1" r=".45"/>
    <circle cx="11.5" cy="4.1" r=".45"/>
    <circle cx="2.4" cy="6.2" r=".45"/>
    <circle cx="5" cy="6.2" r=".45"/>
    <circle cx="7.6" cy="6.2" r=".45"/>
    <circle cx="10.2" cy="6.2" r=".45"/>
    <circle cx="12.8" cy="6.2" r=".45"/>
    <circle cx="3.7" cy="8.3" r=".45"/>
    <circle cx="6.3" cy="8.3" r=".45"/>
    <circle cx="8.9" cy="8.3" r=".45"/>
    <circle cx="11.5" cy="8.3" r=".45"/>
    <circle cx="2.4" cy="10.4" r=".45"/>
    <circle cx="5" cy="10.4" r=".45"/>
    <circle cx="7.6" cy="10.4" r=".45"/>
    <circle cx="10.2" cy="10.4" r=".45"/>
    <circle cx="12.8" cy="10.4" r=".45"/>
  </g>
</svg>
